<?xml version="1.0" encoding="UTF-8" standalone="no"?>
<!-- Created with Inkscape (http://www.inkscape.org/) -->

<svg
   xmlns:dc="http://purl.org/dc/elements/1.1/"
   xmlns:cc="http://creativecommons.org/ns#"
   xmlns:rdf="http://www.w3.org/1999/02/22-rdf-syntax-ns#"
   xmlns:svg="http://www.w3.org/2000/svg"
   xmlns="http://www.w3.org/2000/svg"
   xmlns:sodipodi="http://sodipodi.sourceforge.net/DTD/sodipodi-0.dtd"
   xmlns:inkscape="http://www.inkscape.org/namespaces/inkscape"
   id="svg3397"
   version="1.1"
   inkscape:version="0.91 r13725"
   xml:space="preserve"
   width="16.855968cm"
   height="13.568092cm"
   viewBox="0 0 597.25871 480.75917"
   sodipodi:docname="drawing.svg"><metadata
     id="metadata3403"><rdf:RDF><cc:Work
         rdf:about=""><dc:format>image/svg+xml</dc:format><dc:type
           rdf:resource="http://purl.org/dc/dcmitype/StillImage" /><dc:title></dc:title></cc:Work></rdf:RDF></metadata><defs
     id="defs3401" /><sodipodi:namedview
     pagecolor="#ffffff"
     bordercolor="#666666"
     borderopacity="1"
     objecttolerance="10"
     gridtolerance="10"
     guidetolerance="10"
     inkscape:pageopacity="0"
     inkscape:pageshadow="2"
     inkscape:window-width="1364"
     inkscape:window-height="747"
     id="namedview3399"
     showgrid="false"
     inkscape:zoom="1"
     inkscape:cx="245.38927"
     inkscape:cy="210.95691"
     inkscape:window-x="0"
     inkscape:window-y="19"
     inkscape:window-maximized="1"
     inkscape:current-layer="g3405"
     units="cm"
     fit-margin-top="1"
     fit-margin-left="1"
     fit-margin-right="1"
     fit-margin-bottom="1" /><g
     id="g3405"
     inkscape:groupmode="layer"
     inkscape:label="drawing"
     transform="matrix(1.25,0,0,-1.25,-142.6238,734.75751)"><g
       id="g3407"
       transform="translate(418.6636,282.9557)"><path
         d="M 0,0 0,7.087"
         style="fill:none;stroke:#000000;stroke-width:0.50999999;stroke-linecap:round;stroke-linejoin:round;stroke-miterlimit:10;stroke-dasharray:43.2, 3.6, 3.6, 3.6;stroke-dashoffset:0;stroke-opacity:1"
         id="path3409"
         inkscape:connector-curvature="0" /></g><g
       id="g3411"
       transform="translate(411.577,275.8691)"><path
         d="M 0,0 -7.087,0"
         style="fill:none;stroke:#000000;stroke-width:0.50999999;stroke-linecap:round;stroke-linejoin:round;stroke-miterlimit:10;stroke-dasharray:43.2, 3.6, 3.6, 3.6;stroke-dashoffset:0;stroke-opacity:1"
         id="path3413"
         inkscape:connector-curvature="0" /></g><g
       id="g3415"
       transform="translate(418.6636,268.7825)"><path
         d="M 0,0 0,-7.087"
         style="fill:none;stroke:#000000;stroke-width:0.50999999;stroke-linecap:round;stroke-linejoin:round;stroke-miterlimit:10;stroke-dasharray:43.2, 3.6, 3.6, 3.6;stroke-dashoffset:0;stroke-opacity:1"
         id="path3417"
         inkscape:connector-curvature="0" /></g><g
       id="g3419"
       transform="translate(425.7502,275.8691)"><path
         d="M 0,0 7.087,0"
         style="fill:none;stroke:#000000;stroke-width:0.50999999;stroke-linecap:round;stroke-linejoin:round;stroke-miterlimit:10;stroke-dasharray:43.2, 3.6, 3.6, 3.6;stroke-dashoffset:0;stroke-opacity:1"
         id="path3421"
         inkscape:connector-curvature="0" /></g><g
       id="g3423"
       transform="translate(418.6,275.8)"><path
         d="M 0,0 0,7.1 M 0,0 -7.1,0 M 0,0 0,-7.1 M 0,0 7.1,0"
         style="fill:none;stroke:#000000;stroke-width:0.50999999;stroke-linecap:round;stroke-linejoin:round;stroke-miterlimit:10;stroke-dasharray:none;stroke-opacity:1"
         id="path3425"
         inkscape:connector-curvature="0" /></g><g
       id="g3427"
       transform="translate(170.8,276.8)"><path
         d="M 0,0 148.8,0"
         style="fill:none;stroke:#000000;stroke-width:0.50999999;stroke-linecap:round;stroke-linejoin:round;stroke-miterlimit:10;stroke-dasharray:none;stroke-opacity:1"
         id="path3429"
         inkscape:connector-curvature="0" /></g><g
       id="g3431"
       transform="translate(318.6,411.6)"><path
         d="m 0,0 0,1.6 m -0.1,0.3 0,0.1 m -0.3,-4.1 0.2,1 L -0.1,0 0,1 0,1.6 m -141.8,-27.8 -0.1,1 -0.2,0.9 -0.3,0.9 -0.4,0.9 -0.5,0.7 -0.7,0.7 -0.7,0.6 -0.8,0.6 -0.9,0.4 -0.9,0.2 -0.9,0.2 -0.9,0 -1,-0.1 -0.9,-0.2 -0.9,-0.3 -0.8,-0.5 -0.8,-0.5 -0.7,-0.7 -0.5,-0.7 -0.5,-0.9 -0.4,-0.8 -0.2,-0.9 -0.2,-1 0,-0.9 0.2,-1 0.2,-0.9 0.4,-0.9 0.5,-0.8 0.5,-0.7 0.7,-0.7 0.8,-0.5 0.8,-0.5 0.9,-0.3 0.9,-0.2 1,-0.1 0.9,0 0.9,0.1 0.9,0.3 0.9,0.4 0.8,0.5 0.7,0.6 0.7,0.7 0.5,0.8 0.4,0.9 0.3,0.9 0.2,0.9 0.1,0.9 m 3.4,-7.2 -0.8,-1 -0.9,-1 -0.9,-0.8 -1,-0.7 -1.2,-0.6 -1.1,-0.6 -1.2,-0.4 -1.3,-0.2 -1.2,-0.2 m 0,0 -20.7,-1.4 m 0,0 -0.7,0 -0.7,0.1 -0.7,0.2 -0.6,0.3 -0.6,0.4 -0.5,0.5 -0.4,0.5 -0.4,0.7 m -2.2,15.8 -0.2,-2 -0.1,-2 0,-2.1 0.2,-2 0.4,-2 0.5,-2 0.6,-1.9 0.8,-1.8 m 0.8,15.6 -0.1,0.4 -0.2,0.4 -0.3,0.3 -0.4,0.3 -0.4,0.1 -0.4,-0.1 -0.4,-0.1 -0.4,-0.3 -0.2,-0.4 -0.2,-0.4 m 14.2,-1.6 -0.3,-0.8 -0.4,-0.8 -0.5,-0.7 -0.6,-0.6 -0.7,-0.6 -0.8,-0.4 -0.8,-0.3 -0.8,-0.2 -0.9,0 -0.9,0.1 -0.8,0.3 -0.8,0.3 -0.7,0.5 -0.7,0.6 -0.5,0.7 -0.5,0.7 -0.3,0.8 -0.2,0.9 0,0.9 m 16.4,6.4 -0.9,-0.7 -0.9,-0.8 -0.8,-0.9 -0.7,-1 -0.7,-1 -0.5,-1.1 -0.4,-1.1 -0.3,-1.2 m 12.4,21.3 -0.1,-1.4 -0.2,-1.4 -0.3,-1.5 -0.4,-1.3 -0.6,-1.4 -0.7,-1.3 -0.7,-1.2 -0.9,-1.1 -1,-1.1 -1.1,-0.9 -1.2,-0.9 m 155.7,13.5 -148.5,0 m 95.4,-8.5 42.1,0 m -49,-0.8 0.8,0.2 0.9,0.2 0.8,0.1 0.9,0.1 0.9,0.1 0.8,0.1 0.9,0 0.9,0 m -78.9,-18.8 72,18 m -72,-18 -0.5,0 -0.6,0 -0.5,0.1 -0.5,0.3 -0.4,0.3 -0.4,0.4 -0.3,0.5 -0.2,0.5 m 0,0 -2.5,10.2 m 0,0 0,0.2 0,0.1 0,0.2 0.1,0.2 0.1,0.1 0.1,0.1 0.2,0.1 0.1,0 m 0,0 42.2,10.6 m 0,0 0.4,0.1 0.2,0.3 0.2,0.3 0,0.4 -0.1,0.3 -0.2,0.3 -0.3,0.2 -0.3,0.1 -0.4,0 m 0,0 -42.2,-10.5 m 0,0 -0.6,-0.2 -0.5,-0.3 -0.4,-0.4 -0.3,-0.5 -0.3,-0.5 -0.1,-0.5 -0.1,-0.6 0.1,-0.6 m 0,0 2.8,-11.2 m 0,0 0.1,-0.6 0.1,-0.6 0,-0.6 -0.1,-0.6 -0.1,-0.6 -0.2,-0.6 -0.3,-0.5 -0.3,-0.5 m 127,22.8 1.2,0.1 1.2,0.2 1.2,0.3 1.2,0.5 1.1,0.6 1,0.7 1,0.8 0.8,0.9 0.7,1 0.7,1.1 0.5,1.1 0.4,1.2 m -1.7,5.7 -146.8,0 M 0,1.6 -0.2,2.4 -0.5,2.8 -0.8,3.2 -1.4,3.5 -2.1,3.6 m -146.8,0 0,-0.1 0,-0.2 0,-0.3 0,-0.5 0,-0.6 0,-0.6 0,-0.8 0,-0.8 0,-0.9 0,-0.9 m 28.2,-8.5 5.1,0 m -13.8,-3.4 0.3,0.3 1.1,0.8 1.1,0.7 1.1,0.6 1.2,0.4 1.3,0.4 1.3,0.2 1.3,0 m -16.2,-19.9 1.1,3.2 m -2.6,-6.1 0.3,0.5 0.7,1.1 0.5,1.3"
         style="fill:none;stroke:#000000;stroke-width:0.70899999;stroke-linecap:round;stroke-linejoin:round;stroke-miterlimit:10;stroke-dasharray:none;stroke-opacity:1"
         id="path3433"
         inkscape:connector-curvature="0" /></g><g
       id="g3435"
       transform="translate(318.6,413.2)"><path
         d="M 0,0 0,0 M 0,0 0,0"
         style="fill:none;stroke:#000000;stroke-width:0.70899999;stroke-linecap:round;stroke-linejoin:round;stroke-miterlimit:10;stroke-dasharray:none;stroke-opacity:1"
         id="path3437"
         inkscape:connector-curvature="0" /></g><g
       id="g3439"
       transform="translate(350.9,391.1)"><path
         d="M 0,0 -2.8,0 M 8.5,0 5.7,0 m -8.5,-19.8 2.8,0 m 5.7,0 2.8,0 m -11.3,2.7 2.8,0 m -2.8,15.8 0,-2 0,-2 0,-2.1 0,-2 0,-2 0,-2 0,-1.9 0,-1.8 m 2.8,15.8 -2.8,0 m 2.8,0 0,-2 0,-2 0,-2.1 0,-2 0,-2 0,-2 0,-1.9 0,-1.8 m 5.7,0 2.8,0 m -2.8,15.8 0,-2 0,-2 0,-2.1 0,-2 0,-2 0,-2 0,-1.9 0,-1.8 m 2.8,15.8 -2.8,0 m 2.8,0 0,-2 0,-2 0,-2.1 0,-2 0,-2 0,-2 0,-1.9 0,-1.8 M 0,0 0,-0.1 0,-0.2 0,-0.5 0,-0.9 0,-1.3 m -2.8,1.3 0,-0.1 0,-0.1 0,-0.3 0,-0.4 0,-0.4 M 8.5,0 l 0,-0.1 0,-0.1 0,-0.3 0,-0.4 0,-0.4 M 5.7,0 l 0,-0.1 0,-0.1 0,-0.3 0,-0.4 0,-0.4 M 0,-17.1 l 0,-0.7 0,-0.5 0,-0.5 0,-0.4 0,-0.3 0,-0.2 0,-0.1 m -2.8,2.7 0,-0.7 0,-0.5 0,-0.5 0,-0.4 0,-0.3 0,-0.2 0,-0.1 m 11.3,0 0,0 0,0.1 0,0.2 0,0.3 0,0.4 0,0.5 0,0.5 0,0.7 m -2.8,0 0,-0.7 0,-0.5 0,-0.5 0,-0.4 0,-0.3 0,-0.2 0,-0.1 M 0,4.9 -2.8,4.9 M 0,4.9 0,4.2 0,3.4 0,2.5 0,1.5 0,0.5 0,0 m -2.8,4.9 0,-0.7 0,-0.8 0,-0.9 0,-1 0,-1 0,-0.5 m 11.3,4.9 -2.8,0 m 2.8,0 0,-0.7 0,-0.8 0,-0.9 0,-1 0,-1 0,-0.5 m -2.8,4.9 0,-0.7 0,-0.8 0,-0.9 0,-1 0,-1 0,-0.5 M 0,18.4 l -2.8,0 M 0,18.4 0,17 0,15.6 0,14.1 0,12.8 0,11.4 0,10.1 0,8.9 0,7.8 0,6.7 0,5.8 0,4.9 m -2.8,13.5 0,-1.4 0,-1.4 0,-1.5 0,-1.3 0,-1.4 0,-1.3 0,-1.2 0,-1.1 0,-1.1 0,-0.9 0,-0.9 m 11.3,13.5 -2.8,0 m 2.8,0 0,-1.4 0,-1.4 0,-1.5 0,-1.3 0,-1.4 0,-1.3 0,-1.2 0,-1.1 0,-1.1 0,-0.9 0,-0.9 m -2.8,13.5 0,-1.4 0,-1.4 0,-1.5 0,-1.3 0,-1.4 0,-1.3 0,-1.2 0,-1.1 0,-1.1 0,-0.9 0,-0.9 M 2.8,24.1 3.7,24 4.6,23.8 5.4,23.5 6.2,23 6.8,22.4 7.4,21.8 7.9,21 8.2,20.2 8.4,19.3 8.5,18.4 M 2.8,21.3 3.4,21.2 3.9,21.1 4.4,20.8 4.8,20.4 5.2,20 5.4,19.5 5.6,19 5.7,18.4 m -5.7,0 0,0.6 0.2,0.5 0.3,0.5 0.3,0.4 0.5,0.4 0.4,0.3 0.6,0.1 0.5,0.1 m -5.6,-2.9 0,0.9 0.2,0.9 0.4,0.8 0.4,0.8 0.6,0.6 0.7,0.6 0.8,0.5 0.8,0.3 0.8,0.2 0.9,0.1"
         style="fill:none;stroke:#000000;stroke-width:0.70899999;stroke-linecap:round;stroke-linejoin:round;stroke-miterlimit:10;stroke-dasharray:none;stroke-opacity:1"
         id="path3441"
         inkscape:connector-curvature="0" /></g><g
       id="g3443"
       transform="translate(385.3,413.2)"><path
         d="m 0,0 0,-1.6 m 0,1.6 0,-0.6 0.1,-1 0.1,-1.1 0.2,-1 M 0,0.3 0,0.4 M 2.1,2 2.1,2 1.4,1.9 0.8,1.6 0.4,1.2 0.2,0.8 0,0 m 2.1,2 146.8,0 m 0,-5.7 0,0.9 0,0.9 0,0.8 0,0.8 0,0.6 0,0.6 0,0.5 0,0.3 0,0.2 0,0.1 m 0,-5.7 -148.5,0 m 155.6,-13.5 1,-0.7 0.9,-0.8 0.8,-0.9 0.7,-1 0.6,-1 0.6,-1.1 0.4,-1.1 0.3,-1.2 m 0,0 0.3,-0.8 0.3,-0.8 0.5,-0.7 0.6,-0.6 0.7,-0.6 0.8,-0.4 0.8,-0.3 0.9,-0.2 0.9,0 0.8,0.1 0.9,0.3 0.8,0.3 0.7,0.5 0.7,0.6 0.5,0.7 0.4,0.7 0.4,0.8 0.1,0.9 0.1,0.9 m 0,0 0.1,0.4 0.1,0.4 0.3,0.3 0.4,0.3 0.4,0.1 0.5,-0.1 0.4,-0.1 0.3,-0.3 0.3,-0.4 0.1,-0.4 m 0,0 0.3,-2 0.1,-2 -0.1,-2.1 -0.2,-2 -0.3,-2 -0.5,-2 -0.7,-1.9 -0.8,-1.8 m 0,0 -0.3,-0.7 -0.5,-0.5 -0.5,-0.5 -0.6,-0.4 -0.6,-0.3 -0.7,-0.2 -0.7,-0.1 -0.7,0 m 0,0 -20.6,1.4 m 0,0 -1.4,0.2 -1.3,0.3 -1.2,0.4 -1.2,0.6 -1.2,0.7 -1,0.8 -1,0.9 -0.9,1 -0.8,1.1 -0.6,1.1 -0.5,1.3 m 0,0 -4.2,11.5 m 0,0 -0.5,1.2 -0.7,1.2 -0.7,1 -0.8,1 -1,0.9 -1,0.8 -1.1,0.7 -1.2,0.6 -1.2,0.4 -1.2,0.4 -1.3,0.2 -1.3,0 m 0,0 -109.3,0 m 137.5,8.5 0,-1.4 0.2,-1.4 0.3,-1.5 0.5,-1.3 0.5,-1.4 0.7,-1.3 0.8,-1.2 0.9,-1.1 1,-1.1 1.1,-0.9 1.1,-0.9 m -14.2,-10.6 0,1 0.2,0.9 0.3,0.9 0.5,0.9 0.5,0.7 0.6,0.7 0.8,0.6 0.8,0.6 0.8,0.4 0.9,0.2 0.9,0.2 1,0 0.9,-0.1 1,-0.2 0.8,-0.3 0.9,-0.5 0.7,-0.5 0.7,-0.7 0.6,-0.7 0.5,-0.9 0.4,-0.8 0.2,-0.9 0.1,-1 0,-0.9 -0.1,-1 -0.2,-0.9 -0.4,-0.9 -0.5,-0.8 -0.6,-0.7 -0.7,-0.7 -0.7,-0.5 -0.9,-0.5 -0.8,-0.3 -1,-0.2 -0.9,-0.1 -1,0 -0.9,0.1 -0.9,0.3 -0.8,0.4 -0.8,0.5 -0.8,0.6 -0.6,0.7 -0.5,0.8 -0.5,0.9 -0.3,0.9 -0.2,0.9 0,0.9 m -130.4,15.6 -1.3,0.1 -1.2,0.2 -1.2,0.3 -1.1,0.5 -1.1,0.6 -1.1,0.7 -0.9,0.8 -0.9,0.9 -0.7,1 -0.6,1.1 -0.5,1.1 -0.4,1.2 m 129,-11.9 -13.8,3.4 m 20.1,-16.7 -0.2,-0.5 -0.2,-0.5 -0.4,-0.4 -0.4,-0.3 -0.5,-0.3 -0.6,-0.1 -0.5,0 -0.5,0 m 0,0 -72,18 m 0,0 -0.9,0.2 -0.8,0.2 -0.9,0.1 -0.8,0.1 -0.9,0.1 -0.9,0.1 -0.8,0 -0.9,0"
         style="fill:none;stroke:#000000;stroke-width:0.70899999;stroke-linecap:round;stroke-linejoin:round;stroke-miterlimit:10;stroke-dasharray:none;stroke-opacity:1"
         id="path3445"
         inkscape:connector-curvature="0" /></g><g
       id="g3447"
       transform="translate(385.3,413.2)"><path
         d="M 0,0 0,0 M 0,0 0,0"
         style="fill:none;stroke:#000000;stroke-width:0.70899999;stroke-linecap:round;stroke-linejoin:round;stroke-miterlimit:10;stroke-dasharray:none;stroke-opacity:1"
         id="path3449"
         inkscape:connector-curvature="0" /></g><g
       id="g3451"
       transform="translate(177.9,246.1)"><path
         d="m 0,0 -0.1,0.9 -0.2,1 -0.3,0.9 -0.5,0.9 -0.6,0.8 -0.6,0.7 -0.8,0.6 -0.9,0.5 -0.9,0.4 -1,0.2 -0.9,0.1 -1,0 -1,-0.2 -0.9,-0.3 -0.9,-0.4 -0.8,-0.6 -0.8,-0.6 -0.6,-0.8 -0.5,-0.8 -0.4,-0.9 -0.3,-1 -0.2,-0.9 0,-1 0.2,-1 0.3,-1 0.4,-0.9 0.5,-0.8 0.6,-0.8 0.8,-0.6 0.8,-0.6 0.9,-0.4 0.9,-0.3 1,-0.2 1,0 0.9,0.1 1,0.2 0.9,0.4 0.9,0.5 0.8,0.6 0.6,0.7 0.6,0.8 0.5,0.9 0.3,0.9 0.2,1 0.1,1 m 0,61.5 -0.1,-1 -0.2,-1 -0.3,-0.9 -0.5,-0.9 -0.6,-0.8 -0.6,-0.7 -0.8,-0.6 -0.9,-0.5 -0.9,-0.3 -1,-0.3 -0.9,-0.1 -1,0.1 -1,0.1 -0.9,0.3 -0.9,0.5 -0.8,0.5 -0.8,0.7 -0.6,0.7 -0.5,0.9 -0.4,0.9 -0.3,0.9 -0.2,1 0,1 0.2,1 0.3,0.9 0.4,0.9 0.5,0.9 0.6,0.7 0.8,0.7 0.8,0.5 0.9,0.5 0.9,0.3 1,0.2 1,0 0.9,-0.1 1,-0.3 0.9,-0.3 0.9,-0.5 0.8,-0.6 0.6,-0.7 0.6,-0.8 0.5,-0.9 0.3,-0.9 0.2,-1 0.1,-1 m 130.4,-46 1.2,0.1 1.3,0.2 1.2,0.4 1.1,0.4 1.1,0.6 1,0.7 1,0.8 0.8,0.9 0.8,1.1 0.6,1 0.5,1.2 0.4,1.2 m -53.1,-8.6 42.1,0 m -49,-0.8 0.9,0.2 0.8,0.2 0.9,0.1 0.8,0.1 0.9,0.1 0.8,0.1 0.9,0 0.9,0 M 9.4,-3.2 l 72,17.9 m -72,-17.9 -0.5,-0.1 -0.6,0 -0.5,0.1 -0.5,0.3 -0.4,0.3 -0.4,0.4 -0.3,0.5 -0.1,0.5 m 0,0 L 3.5,9 m 0,0 0,0.2 0,0.2 0,0.1 0.1,0.2 0.1,0.1 0.1,0.1 0.2,0.1 0.1,0.1 m 0,0 42.2,10.5 m 0,0 0.4,0.1 0.3,0.4 0.1,0.3 0,0.5 -0.2,0.3 -0.3,0.3 -0.4,0.2 -0.4,-0.1 m 0,0 L 3.6,12.1 m 0,0 L 3.1,11.9 2.6,11.6 2.1,11.2 1.8,10.8 1.5,10.2 1.4,9.7 l 0,-0.6 0,-0.6 m 0,0 2.8,-11.2 m 0,0 0.2,-0.6 0,-0.6 0,-0.6 L 4.3,-5.1 4.2,-5.7 4,-6.3 3.7,-6.8 3.4,-7.3 m 0,0 -0.9,-1.1 -1,-1.1 -1.1,-0.9 -1.2,-0.7 -1.3,-0.7 -1.3,-0.5 -1.4,-0.3 -1.4,-0.2 m 0,0 -20.7,-1.4 m 0,0 -0.7,0 -0.7,0.1 -0.6,0.2 -0.7,0.3 -0.5,0.4 -0.6,0.5 -0.4,0.6 -0.3,0.6 m -2.3,15.8 -0.2,-2 -0.1,-2 0,-2 0.2,-2.1 0.4,-2 0.5,-1.9 0.7,-2 0.8,-1.8 m 0.7,15.6 -0.1,0.5 -0.2,0.4 -0.4,0.3 -0.4,0.2 -0.5,0.1 -0.5,-0.1 -0.4,-0.3 -0.3,-0.4 -0.2,-0.5 m 14.2,-1.5 -0.3,-0.9 -0.4,-0.9 -0.6,-0.7 -0.6,-0.6 -0.8,-0.6 -0.8,-0.4 -0.9,-0.2 -0.9,-0.2 -0.9,0.1 -0.9,0.2 -0.9,0.3 -0.8,0.4 -0.7,0.6 -0.6,0.7 -0.5,0.8 -0.4,0.9 -0.2,0.9 0,0.9 m 16.4,6.4 -0.9,-0.7 -0.9,-0.8 -0.8,-0.9 -0.7,-1 -0.7,-1 L -18.8,5 -19.2,3.9 -19.5,2.8 M -7.1,24.1 -7.2,22.5 -7.4,20.9 -7.8,19.3 -8.3,17.8 -9,16.4 -9.8,15 l -0.9,-1.3 -1.1,-1.2 -1.2,-1 -1.3,-1 m 7.2,26.9 0,-13.3 m 0,13.3 -0.1,1.6 -0.2,1.6 -0.4,1.5 -0.5,1.5 -0.7,1.5 -0.8,1.3 -0.9,1.3 -1.1,1.2 -1.2,1.1 -1.3,1 m 0,0 -0.9,0.7 -0.9,0.8 -0.8,0.9 -0.7,0.9 -0.7,1 -0.5,1.1 -0.4,1.1 -0.3,1.2 m 0,0 -0.3,0.9 -0.4,0.8 -0.6,0.8 -0.6,0.6 -0.8,0.5 -0.8,0.4 -0.9,0.3 -0.9,0.1 -0.9,0 -0.9,-0.2 -0.9,-0.3 -0.8,-0.5 -0.7,-0.6 -0.6,-0.7 -0.5,-0.8 -0.4,-0.8 -0.2,-0.9 0,-0.9 m 0,0 -0.1,-0.5 -0.2,-0.4 -0.4,-0.4 -0.4,-0.2 -0.5,0 -0.5,0.1 -0.4,0.3 -0.3,0.4 -0.2,0.4 m 0,0 -0.2,2 -0.1,2.1 0,2 0.2,2 0.4,2 0.5,2 0.7,1.9 0.8,1.9 m 0,0 0.3,0.6 0.4,0.6 0.6,0.4 0.5,0.4 0.7,0.3 0.6,0.3 0.7,0.1 0.7,0 m 0,0 20.7,-1.5 m 0,0 1.3,-0.1 1.3,-0.3 1.3,-0.5 1.2,-0.5 1.1,-0.7 1.1,-0.8 1,-0.9 0.9,-1 0.7,-1.1 0.7,-1.2 0.5,-1.2 m 0,0 4.2,-11.6 m 0,0 0.6,-1.3 0.7,-1.2 0.8,-1.2 0.9,-1 1.1,-1 1.2,-0.8 1.2,-0.6 1.3,-0.6 1.4,-0.4 1.4,-0.2 1.4,-0.1 m 0,0 109.3,0 m 0,0 1.2,-0.1 1.3,-0.2 1.2,-0.3 1.1,-0.5 1.1,-0.6 1,-0.7 1,-0.8 0.8,-0.9 0.8,-1 0.6,-1.1 0.5,-1.1 0.4,-1.2 m 0,-13.3 0.3,1.5 0.1,1.7 0,1.7 -0.1,1.7 m 0,0 0.1,1.4 0,1.5 0,0.9 -0.1,1 -0.1,1 -0.2,0.9"
         style="fill:none;stroke:#000000;stroke-width:0.70899999;stroke-linecap:round;stroke-linejoin:round;stroke-miterlimit:10;stroke-dasharray:none;stroke-opacity:1"
         id="path3453"
         inkscape:connector-curvature="0" /></g><g
       id="g3455"
       transform="translate(514.1,555.5)"><path
         d="m 0,0 0,1.6 m -141.8,-27.8 -0.1,1.3 -0.3,1.1 -0.5,1.2 -0.7,1 -0.9,0.9 -1,0.7 -1.1,0.5 -1.2,0.3 -1.3,0.1 -1.2,-0.1 -1.2,-0.3 -1.1,-0.5 -1,-0.7 -0.9,-0.9 -0.7,-1 -0.5,-1.2 -0.3,-1.1 -0.1,-1.3 0.1,-1.2 0.3,-1.2 0.5,-1.1 0.7,-1 0.9,-0.9 1,-0.7 1.1,-0.5 1.2,-0.4 1.2,-0.1 1.3,0.1 1.2,0.4 1.1,0.5 1,0.7 0.9,0.9 0.7,1 0.5,1.1 0.3,1.2 0.1,1.2 m 141.4,24.1 0.2,0.5 0.1,0.5 0.1,0.6 0,0.4 0,0.1 m -0.4,-2.1 0.2,1 L -0.1,0 0,1 0,1.6 m -2.1,2 -146.8,0 M 0,1.6 -0.2,2.3 -0.4,2.8 -0.8,3.1 -1.4,3.5 -2.1,3.6 m 1.7,-5.7 -148.5,0 m 0,5.7 0,-0.1 0,-0.3 0,-0.6 0,-0.7 0,-0.8 0,-1 0,-1.1 0,-1.1 m 7.1,-24.1 -0.1,1.3 -0.3,1.1 -0.5,1.2 -0.7,1 -0.9,0.9 -1,0.7 -1.1,0.5 -1.2,0.3 -1.3,0.1 -1.2,-0.1 -1.2,-0.3 -1.1,-0.5 -1,-0.7 -0.9,-0.9 -0.7,-1 -0.5,-1.2 -0.3,-1.1 -0.1,-1.3 0.1,-1.2 0.3,-1.2 0.5,-1.1 0.7,-1 0.9,-0.9 1,-0.7 1.1,-0.5 1.2,-0.4 1.2,-0.1 1.3,0.1 1.2,0.4 1.1,0.5 1,0.7 0.9,0.9 0.7,1 0.5,1.1 0.3,1.2 0.1,1.2 m 3.4,-7.2 -0.9,-1.2 -0.9,-1 -1.2,-0.9 -1.2,-0.8 -1.2,-0.6 -1.4,-0.5 -1.4,-0.3 -1.4,-0.2 m 0,0 -20.6,-1.4 m 0,0 -0.8,0 -0.6,0.1 -0.7,0.2 -0.6,0.3 -0.6,0.4 -0.5,0.5 -0.5,0.5 -0.3,0.6 m -2.2,15.9 -0.3,-2 -0.1,-2 0.1,-2.1 0.2,-2 0.3,-2 0.5,-2 0.7,-1.9 0.8,-1.9 m 0.7,15.7 -0.1,0.5 -0.3,0.5 -0.4,0.3 -0.5,0.1 -0.6,0 -0.5,-0.3 -0.3,-0.4 -0.2,-0.5 m 14.1,-1.6 -0.4,-1 -0.5,-1 -0.7,-0.8 -0.9,-0.7 -1,-0.5 -1,-0.3 -1.2,-0.1 -1.1,0.1 -1,0.4 -1,0.5 -0.8,0.7 -0.7,0.9 -0.5,1 -0.3,1 -0.1,1.2 m 16.5,6.4 -1,-0.7 -0.9,-0.9 -0.8,-0.8 -0.7,-1 -0.6,-1 -0.6,-1.1 -0.4,-1.1 -0.3,-1.2 m 12.4,21.3 -0.1,-2 -0.3,-1.9 -0.6,-1.9 -0.9,-1.8 -1,-1.7 -1.2,-1.6 -1.5,-1.4 -1.5,-1.2 m 102.5,5 42.1,0 m -49,-0.8 0.9,0.2 0.8,0.1 0.9,0.2 0.8,0.1 0.9,0.1 0.9,0.1 0.8,0 0.9,0 m -78.9,-18.8 72,18 m -72,-18 -0.5,0 -0.5,0 -0.6,0.1 -0.5,0.2 -0.4,0.4 -0.4,0.4 -0.2,0.4 -0.2,0.5 m 0,0 -2.6,10.3 m 0,0 0,0.2 0,0.1 0.1,0.2 0,0.1 0.1,0.2 0.2,0.1 0.1,0.1 0.2,0 m 0,0 42.2,10.5 m 0,0 0.3,0.2 0.3,0.3 0.2,0.4 -0.1,0.4 -0.1,0.4 -0.4,0.3 -0.3,0.1 -0.5,0 m 0,0 -42.2,-10.5 m 0,0 -0.5,-0.2 -0.5,-0.3 -0.4,-0.4 -0.4,-0.5 -0.2,-0.5 -0.2,-0.6 0,-0.5 0.1,-0.6 m 0,0 2.8,-11.2 m 0,0 0.1,-0.6 0,-0.6 0,-0.6 -0.1,-0.6 -0.1,-0.6 -0.2,-0.6 -0.3,-0.5 -0.3,-0.5 m 127,22.8 1.7,0.1 1.6,0.4 1.5,0.6 1.5,0.8 1.3,1 1.1,1.2 1,1.4 0.8,1.4 0.5,1.6 m -120.3,-8.5 5.1,0 m -10.5,-1.2 0.4,0.2 1.6,0.5 1.7,0.4 1.7,0.1 m -16.2,-19.9 1.2,3.1 m -151,-23.4 136,9.5 m -140.6,-20.4 141.4,9.9 m -139.8,-4.4 -1.6,-5.5 m 4.6,10.9 -1.8,-2.5 -0.7,-1.4 -0.5,-1.5 m 40.6,30.4 1.3,0.5 1.4,0.4 1.4,0.2 1.4,0 1.4,-0.2 1.4,-0.3 1.3,-0.5 1.3,-0.7 m 0,0 2.1,-1.2 2.3,-1 2.3,-0.9 2.4,-0.6 2.4,-0.4 2.5,-0.2 2.5,0 2.4,0.3 2.5,0.4 2.3,0.7 m 0,0 13.5,4.4 m 0,0 1.2,0.5 1,0.7 1,0.8 0.7,1.1 0.6,1.1 0.3,1.2 0.1,1.3 -0.1,1.3 -0.3,1.2 -0.6,1.1 -0.7,1.1 -1,0.8 -1,0.7 -1.2,0.5 -1.2,0.3 -1.3,0.1 -1.3,-0.2 m 0,0 -0.3,-0.1 -0.4,-0.1 -0.3,0 -0.3,-0.1 -0.4,-0.1 -0.3,-0.1 -0.4,-0.2 -0.3,-0.1 m 0,0 -0.4,1.4 m 0,0 -0.1,0.2 0,0.3 0,0.3 0.1,0.3 0.2,0.2 0.2,0.2 0.2,0.2 0.2,0.1 m 0,0 8.9,2.8 6.8,2 m 0,0 0.4,-0.1 0.5,-0.1 0.4,0 0.5,0.1 0.4,0.2 0.4,0.2 0.3,0.3 0.3,0.3 m 0,0 1.4,0.4 m 0,0 0.4,-0.1 0.5,-0.1 0.5,0 0.4,0.1 0.4,0.1 0.4,0.2 0.4,0.3 0.3,0.4 m 0,0 1.4,0.3 m 0,0 0.4,-0.1 0.5,-0.1 0.4,0 0.5,0.1 0.4,0.1 0.4,0.2 0.4,0.3 0.3,0.3 m 0,0 1.4,0.3 m 0,0 0.4,-0.1 0.4,-0.1 0.5,0 0.4,0.1 0.5,0.1 0.4,0.2 0.4,0.3 0.3,0.3 m 0,0 1.4,0.3 m 0,0 0.4,-0.2 0.4,-0.1 0.5,0 0.4,0.1 0.5,0.1 0.4,0.2 0.4,0.2 0.3,0.3 m 0,0 1.4,0.3 m 0,0 0.4,-0.2 0.5,-0.1 0.4,0 0.5,0 0.4,0.2 0.4,0.1 0.4,0.3 0.3,0.3 m 0,0 1.4,0.2 m 0,0 0.5,-0.2 0.4,-0.1 0.5,0 0.4,0 0.5,0.1 0.4,0.2 0.4,0.2 0.3,0.3 m 0,0 0.3,0 m 1.4,0 -1.4,0 m 1.4,0 0.3,-0.1 0.3,-0.1 0.3,0 0.3,0 0.3,0 0.3,0 0.3,0.1 0.3,0.1 m 6.9,0 -6.9,0 m 29.3,-13.9 1.1,-1.9 m -12.8,-3.2 0.6,0.1 m -0.5,-0.3 -0.1,0.2 m -0.2,-17.2 0.5,0.7 0.7,1.4 0.6,1.6 0.4,1.6 0.1,1.7 0,0.6 m 0.6,-16.6 -0.9,-0.2 -1,-0.1 -0.9,0.2 -0.9,0.4 -0.8,0.6 -0.6,0.8 -0.5,0.8 -0.2,1 0,1 0.2,0.9 0.5,0.9 0.6,0.7 m 15.2,7.9 -0.2,-1.9 -0.4,-1.9 -0.7,-1.8 -0.8,-1.7 -1.1,-1.7 -1.2,-1.5 -1.4,-1.3 -1.5,-1.2 -1.6,-1 -1.8,-0.9 m 13.6,15.6 -0.2,-2.5 -0.4,-2.4 -0.6,-2.4 -0.9,-2.4 -1,-2.2 -1.3,-2.2 -1.4,-2 -1.7,-1.9 -1.8,-1.7 -1.9,-1.5 -2.1,-1.4 -2.2,-1.1 -2.3,-1 -2.4,-0.7 -2.4,-0.6 -2.5,-0.2 m 0,0 -2.8,-0.2 m 0,0 -0.9,11.9 m -136,-9.5 2.4,2.7 2.9,2.7 3.4,2.8 4,2.8 4.3,2.9 6.3,3.7 6.9,3.7 7.4,3.7 m 95.4,29.2 -0.4,0 -0.5,-0.1 -0.5,0 m 4.8,0.3 -0.2,-0.2 -0.4,-0.2 -0.4,-0.2 -0.4,-0.1 -0.5,0 -0.5,0.1 -0.3,0.1 -0.5,0.2 -0.2,0.1 m 3.4,0.2 1.4,0 m 0,0 0,0 0,-0.1 0,-0.1 0,-0.1 0,-0.1 0,-0.2 0,-0.2 m -6.2,0.5 -0.4,-0.3 -0.3,-0.2 m -2.7,0.2 -0.5,-0.1 -0.6,-0.1 m 1.4,0 -0.3,0.2"
         style="fill:none;stroke:#000000;stroke-width:0.70899999;stroke-linecap:round;stroke-linejoin:round;stroke-miterlimit:10;stroke-dasharray:none;stroke-opacity:1"
         id="path3457"
         inkscape:connector-curvature="0" /></g><g
       id="g3459"
       transform="translate(514.1,557.1)"><path
         d="M 0,0 0,0 M 0,0 0,0"
         style="fill:none;stroke:#000000;stroke-width:0.70899999;stroke-linecap:round;stroke-linejoin:round;stroke-miterlimit:10;stroke-dasharray:none;stroke-opacity:1"
         id="path3461"
         inkscape:connector-curvature="0" /></g><g
       id="g3463"
       transform="translate(563.2,250.3)"><path
         d="M 0,0 -2,5.3 M 0,0 -141.8,0 m 136.4,10.6 -136.4,0 M -2,5.3 -2.6,6.7 -3.4,8.1 -4.3,9.4 -5.4,10.6 m -139.2,-12 2.8,0 m -29.6,24.5 0.2,-1.9 0.4,-1.9 0.5,-1.8 0.6,-1.8 0.8,-1.7 0.9,-1.7 1,-1.6 1.1,-1.6 1.2,-1.5 1.3,-1.3 1.4,-1.3 1.5,-1.2 1.5,-1 1.7,-1 1.7,-0.8 1.7,-0.8 1.8,-0.5 1.9,-0.5 1.8,-0.3 1.9,-0.2 1.9,-0.1 m -26.8,24.5 2.9,-0.6 m 0,0 0.3,-1.4 0.3,-1.5 0.5,-1.4 0.6,-1.3 0.8,-1.3 0.8,-1.2 1,-1.2 1,-1 1.1,-1 1.3,-0.9 1.2,-0.7 1.4,-0.6 1.4,-0.6 m 0,0 0.7,-0.1 0.7,-0.1 0.7,0.1 0.7,0.2 0.7,0.4 0.6,0.4 0.5,0.5 0.4,0.6 0.3,0.7 0.2,0.7 0,0.7 0,0.8 -0.2,0.7 -0.3,0.6 -0.5,0.6 -0.5,0.5 m 0,0 -1,1 -0.8,1 -0.8,1.1 -0.7,1.1 -0.5,1.3 -0.4,1.2 -0.2,1.3 -0.1,1.4 0,1.3 0.2,1.3 m 0,0 1.2,7 m 0,0 -13,2.3 m 22.4,15.4 -1.9,-0.2 -1.8,-0.3 -1.9,-0.5 -1.8,-0.6 -1.7,-0.7 -1.7,-0.9 -1.7,-0.9 -1.6,-1.1 -1.5,-1.2 -1.4,-1.3 -1.3,-1.4 -1.2,-1.4 -1.1,-1.6 -1,-1.6 -0.8,-1.7 m 22.3,17.5 0.1,-2.1 m -0.1,2.1 6.9,0.4 m 2.4,0.2 -0.2,-0.1 -0.3,-0.1 -0.3,-0.1 -0.4,-0.1 -0.3,0 -0.3,0.1 -0.3,0 -0.3,0.1 m 2.4,0.2 1.4,0.1 m 0.3,0 -0.3,0 m 3.7,-0.3 -0.4,-0.2 -0.4,-0.1 -0.5,-0.1 -0.5,0 -0.4,0.1 -0.4,0.1 -0.4,0.2 -0.4,0.3 m 4.8,-0.4 -1.4,0.1 m 4.8,-0.4 -0.4,-0.2 -0.5,-0.2 -0.4,0 -0.5,0 -0.4,0.1 -0.4,0.1 -0.4,0.2 -0.4,0.3 m 4.8,-0.5 -1.4,0.2 m 4.8,-0.6 -0.4,-0.2 -0.5,-0.1 -0.4,-0.1 -0.5,0 -0.4,0.1 -0.5,0.2 -0.4,0.2 -0.3,0.3 m 4.8,-0.6 -1.4,0.2 m 4.7,-0.7 -0.4,-0.2 -0.4,-0.1 -0.5,-0.1 -0.4,0.1 -0.5,0.1 -0.4,0.1 -0.4,0.3 -0.3,0.3 m 4.7,-0.8 -1.4,0.3 m 4.8,-0.8 -0.4,-0.2 -0.5,-0.1 -0.4,-0.1 -0.5,0.1 -0.4,0.1 -0.4,0.2 -0.4,0.2 -0.4,0.3 m 4.8,-0.8 -1.4,0.3 m 4.7,-0.9 -0.4,-0.2 -0.4,-0.1 -0.5,0 -0.5,0 -0.4,0.2 -0.4,0.1 -0.4,0.3 -0.3,0.3 m 4.7,-0.9 -1.4,0.3 m 4.7,-1 -0.4,-0.1 -0.4,-0.1 -0.5,-0.1 -0.4,0.1 -0.5,0.1 -0.4,0.2 -0.4,0.3 -0.3,0.3 m 19.3,-4.4 -9,2.2 -7,1.5 m 17,-5.5 0,0.3 0,0.3 -0.1,0.3 -0.1,0.2 -0.1,0.2 -0.2,0.2 -0.3,0.2 -0.2,0.1 m 0.6,-3.1 0.4,1.3 m -3.2,-0.7 0.4,-0.1 0.3,-0.1 0.4,0 0.3,-0.1 0.4,-0.1 0.3,0 0.4,-0.1 0.3,-0.1 m -5.6,-13.3 -0.9,0.3 -0.8,0.4 -0.8,0.5 -0.7,0.6 -0.6,0.7 -0.6,0.8 -0.4,0.8 -0.3,0.9 -0.2,0.9 0,1 0,0.9 0.2,0.9 0.3,0.9 0.4,0.9 0.6,0.7 0.6,0.7 0.7,0.6 0.8,0.6 0.8,0.4 0.9,0.2 1,0.2 0.9,0 0.9,0 m 11,-17.3 -13.8,3.4 m 37.3,1.1 -1.6,-1.1 -1.6,-0.9 -1.7,-0.8 -1.8,-0.8 -1.8,-0.6 -1.8,-0.5 -1.9,-0.3 -1.9,-0.3 -1.9,-0.1 -1.9,0 -1.9,0.2 -1.9,0.3 -1.8,0.4 m 34.3,5.9 -1.2,0.4 -1.2,0.2 -1.3,0.2 -1.3,-0.1 -1.2,-0.1 -1.2,-0.3 -1.2,-0.4 -1.2,-0.6 -1,-0.7 m -86.4,-32.9 0,12 m 4.3,14.9 -0.1,1 -0.2,0.9 -0.3,0.9 -0.4,0.8 -0.5,0.8 -0.7,0.7 -0.7,0.6 -0.8,0.5 -0.8,0.4 -0.9,0.3 -1,0.2 -0.9,0 -1,-0.1 -0.9,-0.2 -0.9,-0.4 -0.8,-0.4 -0.8,-0.6 -0.6,-0.6 -0.6,-0.8 -0.5,-0.8 -0.4,-0.9 -0.2,-0.9 -0.2,-0.9 0,-1 0.2,-0.9 0.2,-0.9 0.4,-0.9 0.5,-0.8 0.6,-0.7 0.6,-0.7 0.8,-0.6 0.8,-0.4 0.9,-0.3 0.9,-0.3 1,-0.1 0.9,0.1 1,0.1 0.9,0.3 0.8,0.4 0.8,0.5 0.7,0.6 0.7,0.7 0.5,0.8 0.4,0.9 0.3,0.8 0.2,1 0.1,0.9 m 132.1,-14.9 -2.1,2.1 -2.4,2.1 -2.9,2.1 -3.2,2.1 -3.5,2.1 -3.8,2.1 -4.9,2.5 -5.1,2.4 -5.5,2.4 -5.8,2.4 m -91.3,22.3 -0.6,0 -0.5,0.1 m 0,0 -0.3,-0.2 m -9.4,0.1 0.1,0 1.4,0.1 m 3.4,0.1 -0.3,-0.2 -0.5,-0.3 -0.5,-0.1 -0.5,0 -0.4,0 -0.4,0.1 -0.4,0.1 -0.4,0.2 0,0.1 m 4.8,0.1 -0.5,0 -0.5,0 -0.4,0 m -4.8,-0.9 0,0.1 0,0.2 0,0.1 0,0.1 -0.1,0.1 0,0.1 m 7,-0.3 -0.5,0.3 -0.2,0.2"
         style="fill:none;stroke:#000000;stroke-width:0.70899999;stroke-linecap:round;stroke-linejoin:round;stroke-miterlimit:10;stroke-dasharray:none;stroke-opacity:1"
         id="path3465"
         inkscape:connector-curvature="0" /></g></g></svg>